# Blender v2.79 (sub 0) OBJ File: 'clean.blend'
# www.blender.org
mtllib cup_0003.mtl
o cup_0003
v 0.113418 0.140019 0.000000
v 0.111309 0.114850 0.000000
v 0.110707 0.127573 0.000000
v 0.115184 0.102715 0.000000
v 0.119258 0.151339 0.000000
v 0.119258 0.151339 0.099444
v 0.113418 0.140019 0.099444
v 0.110707 0.127573 0.099444
v 0.111309 0.114850 0.099444
v 0.115184 0.102715 0.099444
v 0.122067 0.091997 0.000000
v 0.122067 0.091997 0.099444
v 0.131489 0.083426 0.099444
v 0.131489 0.083426 0.000000
v 0.127830 0.160761 0.000000
v 0.127830 0.160761 0.099444
v 0.123030 0.124504 0.099444
v 0.123346 0.114956 0.099444
v 0.126123 0.105816 0.099444
v 0.131171 0.097705 0.099444
v 0.138146 0.091177 0.099444
v 0.142809 0.077586 0.099444
v 0.142809 0.077586 0.000000
v 0.138548 0.167645 0.000000
v 0.138548 0.167645 0.099444
v 0.129695 0.142236 0.099444
v 0.125195 0.133809 0.099444
v 0.125195 0.133809 0.002917
v 0.123030 0.124504 0.002917
v 0.123346 0.114956 0.002917
v 0.126123 0.105816 0.002917
v 0.131171 0.097705 0.002917
v 0.138146 0.091177 0.002917
v 0.146573 0.086676 0.002917
v 0.146573 0.086676 0.099444
v 0.155255 0.074875 0.099444
v 0.155255 0.074875 0.000000
v 0.150682 0.171519 0.000000
v 0.150682 0.171519 0.099444
v 0.144334 0.154259 0.099444
v 0.136224 0.149211 0.099444
v 0.136224 0.149211 0.002917
v 0.129695 0.142236 0.002917
v 0.144334 0.154259 0.002917
v 0.153475 0.157036 0.002917
v 0.155878 0.084511 0.002917
v 0.155878 0.084511 0.099444
v 0.167979 0.075477 0.099444
v 0.167979 0.075477 0.000000
v 0.163406 0.172121 0.000000
v 0.163406 0.172121 0.099444
v 0.153475 0.157036 0.099444
v 0.163023 0.157352 0.099444
v 0.163023 0.157352 0.002917
v 0.165426 0.084827 0.002917
v 0.165426 0.084827 0.099444
v 0.174567 0.087604 0.099444
v 0.180113 0.079351 0.099444
v 0.180113 0.079351 0.000000
v 0.175851 0.169410 0.000000
v 0.175851 0.169410 0.099444
v 0.172328 0.155187 0.099444
v 0.172328 0.155187 0.002917
v 0.174567 0.087604 0.002917
v 0.182677 0.092652 0.002917
v 0.182677 0.092652 0.099444
v 0.190831 0.086234 0.099444
v 0.190831 0.086234 0.000000
v 0.187171 0.163570 0.000000
v 0.187171 0.163570 0.099444
v 0.180755 0.150686 0.099444
v 0.180755 0.150686 0.002917
v 0.187730 0.144159 0.002917
v 0.189205 0.099627 0.002917
v 0.189205 0.099627 0.099444
v 0.193705 0.108054 0.099444
v 0.199402 0.095657 0.099444
v 0.199402 0.095657 0.000000
v 0.196594 0.154999 0.000000
v 0.196594 0.154999 0.099444
v 0.187730 0.144159 0.099444
v 0.192778 0.136048 0.002917
v 0.192778 0.136048 0.099444
v 0.195554 0.126907 0.002917
v 0.195554 0.126907 0.099444
v 0.195871 0.117359 0.002917
v 0.195871 0.117359 0.099444
v 0.193705 0.108054 0.002917
v 0.203477 0.144280 0.099444
v 0.205242 0.106977 0.099444
v 0.205242 0.106977 0.000000
v 0.203477 0.144280 0.000000
v 0.207352 0.132146 0.099444
v 0.207352 0.132146 0.000000
v 0.207954 0.119423 0.099444
v 0.207954 0.119423 0.000000
v 0.204637 0.135234 0.096262
v 0.204637 0.123989 0.063221
v 0.204637 0.123989 0.096262
v 0.204637 0.126855 0.058448
v 0.204637 0.126855 0.033041
v 0.204637 0.135234 0.004773
v 0.204637 0.123989 0.004773
v 0.204637 0.123989 0.037814
v 0.243948 0.135234 0.014415
v 0.247713 0.124254 0.017062
v 0.243948 0.124254 0.014415
v 0.247713 0.135234 0.017062
v 0.213724 0.135234 0.016840
v 0.217524 0.135234 0.014242
v 0.239783 0.135234 0.012455
v 0.221714 0.135234 0.012337
v 0.235342 0.135234 0.011244
v 0.226170 0.135234 0.011183
v 0.230759 0.135234 0.010815
v 0.235342 0.124254 0.011244
v 0.230759 0.124254 0.010815
v 0.226170 0.124254 0.011183
v 0.221714 0.124254 0.012337
v 0.239783 0.124254 0.012455
v 0.217524 0.124254 0.014242
v 0.213724 0.124254 0.016840
v 0.210429 0.124254 0.020054
v 0.231042 0.124254 0.018922
v 0.250966 0.124254 0.020320
v 0.234214 0.124254 0.019236
v 0.237263 0.124254 0.020166
v 0.240070 0.124254 0.021676
v 0.253608 0.124254 0.024089
v 0.250966 0.135234 0.020320
v 0.253608 0.135234 0.024089
v 0.240070 0.135234 0.021676
v 0.237263 0.135234 0.020166
v 0.234214 0.135234 0.019236
v 0.231042 0.135234 0.018922
v 0.210429 0.135234 0.020054
v 0.207738 0.135234 0.023788
v 0.207738 0.124254 0.023788
v 0.224821 0.124254 0.020166
v 0.227870 0.124254 0.019236
v 0.227870 0.135234 0.019236
v 0.242527 0.124254 0.023707
v 0.242527 0.135234 0.023707
v 0.244538 0.135234 0.026180
v 0.244538 0.124254 0.026180
v 0.257511 0.124254 0.032437
v 0.257511 0.135234 0.032437
v 0.246025 0.135234 0.028999
v 0.246025 0.124254 0.028999
v 0.247919 0.124254 0.032777
v 0.259902 0.124254 0.041337
v 0.259902 0.135234 0.041337
v 0.247919 0.135234 0.032777
v 0.249484 0.135234 0.036702
v 0.249484 0.124254 0.036702
v 0.250707 0.124254 0.040747
v 0.251581 0.124254 0.044882
v 0.260707 0.124254 0.050518
v 0.260707 0.135234 0.050518
v 0.251581 0.135234 0.044882
v 0.250707 0.135234 0.040747
v 0.252099 0.135234 0.049075
v 0.252099 0.124254 0.049075
v 0.252256 0.124254 0.053298
v 0.259902 0.124254 0.059698
v 0.259902 0.135234 0.059698
v 0.252256 0.135234 0.053298
v 0.252053 0.135234 0.057519
v 0.252053 0.124254 0.057519
v 0.251489 0.124254 0.061707
v 0.257511 0.124254 0.068598
v 0.257511 0.135234 0.068598
v 0.251489 0.135234 0.061707
v 0.250570 0.135234 0.065832
v 0.250570 0.124254 0.065832
v 0.249303 0.124254 0.069863
v 0.253608 0.124254 0.076947
v 0.253608 0.135234 0.076947
v 0.249303 0.135234 0.069863
v 0.247695 0.135234 0.073771
v 0.247695 0.124254 0.073771
v 0.245760 0.124254 0.077528
v 0.251796 0.124254 0.079527
v 0.251796 0.135234 0.079527
v 0.245760 0.135234 0.077528
v 0.243721 0.124254 0.079398
v 0.243721 0.135234 0.079398
v 0.241451 0.124254 0.080976
v 0.241451 0.135234 0.080976
v 0.238987 0.124254 0.082234
v 0.238987 0.135234 0.082234
v 0.236378 0.124254 0.083150
v 0.236378 0.135234 0.083150
v 0.233669 0.124254 0.083706
v 0.233669 0.135234 0.083706
v 0.230909 0.124254 0.083893
v 0.230909 0.135234 0.083893
v 0.228150 0.124254 0.083706
v 0.228150 0.135234 0.083706
v 0.225441 0.124254 0.083150
v 0.225441 0.135234 0.083150
v 0.222831 0.124254 0.082234
v 0.222831 0.135234 0.082234
v 0.220368 0.124254 0.080976
v 0.220368 0.135234 0.080976
v 0.218097 0.124254 0.079398
v 0.218097 0.135234 0.079398
v 0.216059 0.124254 0.077528
v 0.216059 0.135234 0.077528
v 0.216059 0.135234 0.028999
v 0.216059 0.124254 0.028999
v 0.207738 0.124254 0.036745
v 0.217546 0.124254 0.026180
v 0.219557 0.124254 0.023707
v 0.222014 0.124254 0.021676
v 0.222014 0.135234 0.021676
v 0.224821 0.135234 0.020166
v 0.219557 0.135234 0.023707
v 0.217546 0.135234 0.026180
v 0.207738 0.135234 0.079527
v 0.207738 0.124254 0.079527
v 0.207738 0.123989 0.036745
v 0.207738 0.123989 0.079527
v 0.210479 0.124254 0.082834
v 0.213712 0.124254 0.085663
v 0.245822 0.124254 0.085663
v 0.249054 0.124254 0.082834
v 0.249054 0.135234 0.082834
v 0.245822 0.135234 0.085663
v 0.213712 0.135234 0.085663
v 0.210479 0.135234 0.082834
v 0.217354 0.124254 0.087942
v 0.217354 0.135234 0.087942
v 0.221312 0.124254 0.089612
v 0.221312 0.135234 0.089612
v 0.225485 0.124254 0.090632
v 0.225485 0.135234 0.090632
v 0.229767 0.124254 0.090975
v 0.229767 0.135234 0.090975
v 0.234049 0.124254 0.090632
v 0.234049 0.135234 0.090632
v 0.238222 0.124254 0.089612
v 0.238222 0.135234 0.089612
v 0.242180 0.124254 0.087942
v 0.242180 0.135234 0.087942
vn -0.0000 0.0000 -1.0000
vn -0.8887 0.4585 0.0000
vn -0.9771 0.2129 0.0000
vn -0.9989 -0.0473 -0.0000
vn -0.9526 -0.3042 -0.0000
vn -0.8414 -0.5404 0.0000
vn -0.6729 -0.7397 -0.0000
vn -0.7397 0.6729 0.0000
vn -0.0000 -0.0000 1.0000
vn -0.4585 -0.8887 -0.0000
vn -0.5404 0.8414 0.0000
vn 0.9740 -0.2267 0.0000
vn 0.9995 0.0331 0.0000
vn 0.9568 0.2907 0.0000
vn 0.8490 0.5284 0.0000
vn 0.6833 0.7301 0.0000
vn 0.4711 0.8821 0.0000
vn -0.2129 -0.9771 -0.0000
vn -0.3042 0.9526 0.0000
vn 0.7301 -0.6833 0.0000
vn 0.8821 -0.4710 0.0000
vn 0.2267 0.9740 0.0000
vn 0.0473 -0.9989 -0.0000
vn -0.0473 0.9989 0.0000
vn 0.2907 -0.9568 0.0000
vn 0.0331 -0.9995 0.0000
vn -0.0331 0.9995 0.0000
vn 0.3042 -0.9526 0.0000
vn 0.2129 0.9771 0.0000
vn -0.2267 -0.9740 -0.0000
vn -0.2906 0.9568 0.0000
vn -0.5284 0.8490 0.0000
vn 0.5404 -0.8414 0.0000
vn 0.4585 0.8887 0.0000
vn -0.4711 -0.8821 0.0000
vn -0.7301 0.6833 0.0000
vn 0.7397 -0.6729 0.0000
vn 0.6729 0.7397 0.0000
vn -0.6833 -0.7301 0.0000
vn -0.8490 -0.5284 0.0000
vn -0.9568 -0.2906 -0.0000
vn -0.9995 -0.0331 0.0000
vn -0.9740 0.2267 0.0000
vn -0.8821 0.4711 0.0000
vn 0.8887 -0.4585 -0.0000
vn 0.8414 0.5404 0.0000
vn 0.9526 0.3042 0.0000
vn 0.9989 0.0473 0.0000
vn 0.9771 -0.2129 0.0000
vn 0.5284 -0.8490 0.0000
vn -1.0000 0.0000 0.0000
vn 0.5752 0.0000 -0.8180
vn 0.0000 1.0000 0.0000
vn 0.0930 0.0000 -0.9957
vn 0.0000 -1.0000 -0.0000
vn 0.2633 0.0000 -0.9647
vn 0.4256 0.0000 -0.9049
vn -0.4137 0.0000 -0.9104
vn -0.2506 0.0000 -0.9681
vn -0.0800 0.0000 -0.9968
vn -0.5645 0.0000 -0.8255
vn -0.5645 0.0000 -0.8254
vn 0.8189 0.0000 -0.5740
vn 0.7076 0.0000 -0.7066
vn -0.6983 0.0000 -0.7158
vn -0.8112 0.0000 -0.5848
vn 0.0985 -0.0000 0.9951
vn -0.0985 -0.0000 0.9951
vn -0.2917 -0.0000 0.9565
vn -0.4736 0.0000 0.8807
vn -0.6371 -0.0000 0.7708
vn -0.7759 0.0000 0.6308
vn 0.9059 0.0000 -0.4235
vn -0.8845 0.0000 0.4665
vn 0.9658 0.0000 -0.2594
vn -0.8939 0.0000 0.4482
vn -0.9289 0.0000 0.3703
vn 0.9962 0.0000 -0.0873
vn -0.9572 0.0000 0.2896
vn -0.9784 0.0000 0.2068
vn -0.9925 0.0000 0.1225
vn 0.9962 0.0000 0.0873
vn -0.9993 0.0000 0.0372
vn -0.9988 0.0000 -0.0482
vn 0.9658 0.0000 0.2594
vn -0.9911 0.0000 -0.1333
vn -0.9761 0.0000 -0.2175
vn 0.9059 0.0000 0.4235
vn -0.9539 0.0000 -0.3000
vn -0.9248 0.0000 -0.3804
vn 0.8184 0.0000 0.5747
vn -0.8890 0.0000 -0.4579
vn -0.6759 0.0000 -0.7370
vn -0.5707 0.0000 -0.8211
vn -0.4550 0.0000 -0.8905
vn -0.3311 0.0000 -0.9436
vn -0.2010 0.0000 -0.9796
vn -0.0675 0.0000 -0.9977
vn 0.0675 0.0000 -0.9977
vn 0.2010 0.0000 -0.9796
vn 0.3311 0.0000 -0.9436
vn 0.4551 0.0000 -0.8905
vn 0.5707 0.0000 -0.8212
vn 0.6760 0.0000 -0.7369
vn 1.0000 0.0000 0.0000
vn 0.4736 0.0000 0.8807
vn 0.2918 -0.0000 0.9565
vn 0.7699 0.0000 0.6382
vn -0.7699 0.0000 0.6382
vn -0.6585 0.0000 0.7526
vn -0.5305 0.0000 0.8477
vn -0.3888 0.0000 0.9213
vn -0.2374 0.0000 0.9714
vn -0.0798 0.0000 0.9968
vn 0.0798 0.0000 0.9968
vn 0.2374 0.0000 0.9714
vn 0.3888 0.0000 0.9213
vn 0.5305 0.0000 0.8477
vn 0.6585 0.0000 0.7526
vn 0.8846 0.0000 0.4664
vn 0.7758 -0.0000 0.6309
vn 0.6371 0.0000 0.7707
usemtl None
s off
f 1//1 2//1 3//1
f 2//1 1//1 4//1
f 4//1 1//1 5//1
f 1//2 6//2 5//2
f 6//2 1//2 7//2
f 3//3 7//3 1//3
f 7//3 3//3 8//3
f 2//4 8//4 3//4
f 8//4 2//4 9//4
f 4//5 9//5 2//5
f 9//5 4//5 10//5
f 11//6 10//6 4//6
f 10//6 11//6 12//6
f 11//7 13//7 12//7
f 13//7 11//7 14//7
f 11//1 15//1 14//1
f 11//1 5//1 15//1
f 4//1 5//1 11//1
f 5//8 16//8 15//8
f 16//8 5//8 6//8
f 6//9 17//9 16//9
f 6//9 12//9 17//9
f 6//9 10//9 12//9
f 7//9 10//9 6//9
f 7//9 9//9 10//9
f 9//9 7//9 8//9
f 12//9 18//9 17//9
f 18//9 12//9 13//9
f 18//9 13//9 19//9
f 19//9 13//9 20//9
f 20//9 13//9 21//9
f 21//9 13//9 22//9
f 14//10 22//10 13//10
f 22//10 14//10 23//10
f 14//1 24//1 23//1
f 14//1 15//1 24//1
f 16//11 24//11 15//11
f 24//11 16//11 25//11
f 16//9 26//9 25//9
f 16//9 27//9 26//9
f 16//9 17//9 27//9
f 17//12 28//12 27//12
f 28//12 17//12 29//12
f 18//13 29//13 17//13
f 29//13 18//13 30//13
f 19//14 30//14 18//14
f 30//14 19//14 31//14
f 20//15 31//15 19//15
f 31//15 20//15 32//15
f 20//16 33//16 32//16
f 33//16 20//16 21//16
f 21//17 34//17 33//17
f 34//17 21//17 35//17
f 21//9 22//9 35//9
f 35//9 22//9 36//9
f 23//18 36//18 22//18
f 36//18 23//18 37//18
f 23//1 38//1 37//1
f 23//1 24//1 38//1
f 25//19 38//19 24//19
f 38//19 25//19 39//19
f 25//9 40//9 39//9
f 25//9 41//9 40//9
f 25//9 26//9 41//9
f 26//20 42//20 41//20
f 42//20 26//20 43//20
f 27//21 43//21 26//21
f 43//21 27//21 28//21
f 28//9 31//9 43//9
f 28//9 30//9 31//9
f 30//9 28//9 29//9
f 43//9 31//9 32//9
f 43//9 32//9 42//9
f 42//9 32//9 33//9
f 42//9 33//9 44//9
f 44//9 33//9 34//9
f 44//9 34//9 45//9
f 45//9 34//9 46//9
f 35//22 46//22 34//22
f 46//22 35//22 47//22
f 35//9 36//9 47//9
f 47//9 36//9 48//9
f 37//23 48//23 36//23
f 48//23 37//23 49//23
f 37//1 50//1 49//1
f 37//1 38//1 50//1
f 39//24 50//24 38//24
f 50//24 39//24 51//24
f 39//9 52//9 51//9
f 39//9 40//9 52//9
f 44//25 52//25 40//25
f 52//25 44//25 45//25
f 45//26 53//26 52//26
f 53//26 45//26 54//26
f 45//9 46//9 54//9
f 54//9 46//9 55//9
f 47//27 55//27 46//27
f 55//27 47//27 56//27
f 47//9 48//9 56//9
f 56//9 48//9 57//9
f 57//9 48//9 58//9
f 49//28 58//28 48//28
f 58//28 49//28 59//28
f 49//1 60//1 59//1
f 49//1 50//1 60//1
f 51//29 60//29 50//29
f 60//29 51//29 61//29
f 51//9 62//9 61//9
f 51//9 53//9 62//9
f 51//9 52//9 53//9
f 54//30 62//30 53//30
f 62//30 54//30 63//30
f 54//9 55//9 63//9
f 63//9 55//9 64//9
f 56//31 64//31 55//31
f 64//31 56//31 57//31
f 57//32 65//32 64//32
f 65//32 57//32 66//32
f 57//9 58//9 66//9
f 66//9 58//9 67//9
f 59//33 67//33 58//33
f 67//33 59//33 68//33
f 59//1 69//1 68//1
f 59//1 60//1 69//1
f 61//34 69//34 60//34
f 69//34 61//34 70//34
f 61//9 71//9 70//9
f 61//9 62//9 71//9
f 63//35 71//35 62//35
f 71//35 63//35 72//35
f 63//9 64//9 72//9
f 72//9 64//9 65//9
f 72//9 65//9 73//9
f 73//9 65//9 74//9
f 65//36 75//36 74//36
f 75//36 65//36 66//36
f 66//9 67//9 75//9
f 75//9 67//9 76//9
f 76//9 67//9 77//9
f 67//37 78//37 77//37
f 78//37 67//37 68//37
f 68//1 79//1 78//1
f 68//1 69//1 79//1
f 70//38 79//38 69//38
f 79//38 70//38 80//38
f 70//9 81//9 80//9
f 70//9 71//9 81//9
f 72//39 81//39 71//39
f 81//39 72//39 73//39
f 82//40 81//40 73//40
f 81//40 82//40 83//40
f 84//41 83//41 82//41
f 83//41 84//41 85//41
f 86//42 85//42 84//42
f 85//42 86//42 87//42
f 88//43 87//43 86//43
f 87//43 88//43 76//43
f 74//44 76//44 88//44
f 76//44 74//44 75//44
f 82//9 74//9 88//9
f 73//9 74//9 82//9
f 82//9 88//9 84//9
f 84//9 88//9 86//9
f 76//9 77//9 87//9
f 87//9 77//9 80//9
f 80//9 77//9 89//9
f 89//9 77//9 90//9
f 77//45 91//45 90//45
f 91//45 77//45 78//45
f 78//1 92//1 91//1
f 78//1 79//1 92//1
f 79//46 89//46 92//46
f 89//46 79//46 80//46
f 93//47 92//47 89//47
f 92//47 93//47 94//47
f 95//48 94//48 93//48
f 94//48 95//48 96//48
f 90//49 96//49 95//49
f 96//49 90//49 91//49
f 91//1 94//1 96//1
f 91//1 92//1 94//1
f 93//9 90//9 95//9
f 89//9 90//9 93//9
f 80//9 85//9 87//9
f 80//9 83//9 85//9
f 80//9 81//9 83//9
f 40//50 42//50 44//50
f 42//50 40//50 41//50
f 97//51 98//51 99//51
f 98//51 97//51 100//51
f 100//51 97//51 101//51
f 102//51 101//51 97//51
f 103//51 101//51 102//51
f 101//51 103//51 104//51
f 104//51 100//51 101//51
f 100//51 104//51 98//51
f 105//52 106//52 107//52
f 106//52 105//52 108//52
f 105//53 109//53 108//53
f 105//53 110//53 109//53
f 111//53 110//53 105//53
f 111//53 112//53 110//53
f 113//53 112//53 111//53
f 113//53 114//53 112//53
f 114//53 113//53 115//53
f 116//54 115//54 113//54
f 115//54 116//54 117//54
f 116//55 118//55 117//55
f 118//55 116//55 119//55
f 119//55 116//55 120//55
f 113//56 120//56 116//56
f 120//56 113//56 111//56
f 111//57 107//57 120//57
f 107//57 111//57 105//57
f 121//55 120//55 107//55
f 119//55 120//55 121//55
f 110//58 119//58 121//58
f 119//58 110//58 112//58
f 112//59 118//59 119//59
f 118//59 112//59 114//59
f 114//60 117//60 118//60
f 117//60 114//60 115//60
f 121//61 109//61 110//61
f 109//62 121//62 122//62
f 121//55 107//55 122//55
f 122//55 107//55 106//55
f 122//55 106//55 123//55
f 123//55 106//55 124//55
f 125//55 124//55 106//55
f 124//55 125//55 126//55
f 126//55 125//55 127//55
f 127//55 125//55 128//55
f 128//55 125//55 129//55
f 130//63 129//63 125//63
f 129//63 130//63 131//63
f 130//53 132//53 131//53
f 130//53 133//53 132//53
f 130//53 134//53 133//53
f 130//53 135//53 134//53
f 135//53 130//53 108//53
f 125//64 108//64 130//64
f 108//64 125//64 106//64
f 108//53 136//53 135//53
f 108//53 109//53 136//53
f 122//65 136//65 109//65
f 136//65 122//65 123//65
f 123//66 137//66 136//66
f 137//66 123//66 138//66
f 123//55 139//55 138//55
f 123//55 140//55 139//55
f 123//55 124//55 140//55
f 124//67 141//67 140//67
f 141//67 124//67 135//67
f 126//68 135//68 124//68
f 135//68 126//68 134//68
f 127//69 134//69 126//69
f 134//69 127//69 133//69
f 128//70 133//70 127//70
f 133//70 128//70 132//70
f 142//71 132//71 128//71
f 132//71 142//71 143//71
f 142//72 144//72 143//72
f 144//72 142//72 145//72
f 142//55 129//55 145//55
f 128//55 129//55 142//55
f 145//55 129//55 146//55
f 131//73 146//73 129//73
f 146//73 131//73 147//73
f 131//53 144//53 147//53
f 131//53 143//53 144//53
f 131//53 132//53 143//53
f 147//53 144//53 148//53
f 145//74 148//74 144//74
f 148//74 145//74 149//74
f 145//55 146//55 149//55
f 149//55 146//55 150//55
f 150//55 146//55 151//55
f 146//75 152//75 151//75
f 152//75 146//75 147//75
f 147//53 153//53 152//53
f 147//53 148//53 153//53
f 149//76 153//76 148//76
f 153//76 149//76 150//76
f 150//77 154//77 153//77
f 154//77 150//77 155//77
f 150//55 151//55 155//55
f 155//55 151//55 156//55
f 156//55 151//55 157//55
f 157//55 151//55 158//55
f 152//78 158//78 151//78
f 158//78 152//78 159//78
f 152//53 160//53 159//53
f 152//53 161//53 160//53
f 152//53 154//53 161//53
f 152//53 153//53 154//53
f 155//79 161//79 154//79
f 161//79 155//79 156//79
f 156//80 160//80 161//80
f 160//80 156//80 157//80
f 157//81 162//81 160//81
f 162//81 157//81 163//81
f 157//55 158//55 163//55
f 163//55 158//55 164//55
f 164//55 158//55 165//55
f 159//82 165//82 158//82
f 165//82 159//82 166//82
f 159//53 167//53 166//53
f 159//53 162//53 167//53
f 159//53 160//53 162//53
f 163//83 167//83 162//83
f 167//83 163//83 164//83
f 164//84 168//84 167//84
f 168//84 164//84 169//84
f 164//55 165//55 169//55
f 169//55 165//55 170//55
f 170//55 165//55 171//55
f 165//85 172//85 171//85
f 172//85 165//85 166//85
f 166//53 173//53 172//53
f 166//53 168//53 173//53
f 166//53 167//53 168//53
f 169//86 173//86 168//86
f 173//86 169//86 170//86
f 170//87 174//87 173//87
f 174//87 170//87 175//87
f 170//55 171//55 175//55
f 175//55 171//55 176//55
f 176//55 171//55 177//55
f 171//88 178//88 177//88
f 178//88 171//88 172//88
f 172//53 179//53 178//53
f 172//53 174//53 179//53
f 172//53 173//53 174//53
f 175//89 179//89 174//89
f 179//89 175//89 176//89
f 176//90 180//90 179//90
f 180//90 176//90 181//90
f 176//55 177//55 181//55
f 181//55 177//55 182//55
f 182//55 177//55 183//55
f 178//91 183//91 177//91
f 183//91 178//91 184//91
f 178//53 185//53 184//53
f 178//53 180//53 185//53
f 178//53 179//53 180//53
f 181//92 185//92 180//92
f 185//92 181//92 182//92
f 186//93 185//93 182//93
f 185//93 186//93 187//93
f 188//94 187//94 186//94
f 187//94 188//94 189//94
f 190//95 189//95 188//95
f 189//95 190//95 191//95
f 192//96 191//96 190//96
f 191//96 192//96 193//96
f 194//97 193//97 192//97
f 193//97 194//97 195//97
f 196//98 195//98 194//98
f 195//98 196//98 197//98
f 198//99 197//99 196//99
f 197//99 198//99 199//99
f 200//100 199//100 198//100
f 199//100 200//100 201//100
f 202//101 201//101 200//101
f 201//101 202//101 203//101
f 204//102 203//102 202//102
f 203//102 204//102 205//102
f 206//103 205//103 204//103
f 205//103 206//103 207//103
f 208//104 207//104 206//104
f 207//104 208//104 209//104
f 208//105 210//105 209//105
f 210//105 208//105 211//105
f 212//55 211//55 208//55
f 212//55 213//55 211//55
f 138//55 213//55 212//55
f 138//55 214//55 213//55
f 138//55 215//55 214//55
f 138//55 139//55 215//55
f 139//106 216//106 215//106
f 216//106 139//106 217//106
f 140//107 217//107 139//107
f 217//107 140//107 141//107
f 141//53 136//53 217//53
f 135//53 136//53 141//53
f 217//53 136//53 137//53
f 217//53 137//53 216//53
f 216//53 137//53 218//53
f 218//53 137//53 219//53
f 219//53 137//53 210//53
f 210//53 137//53 220//53
f 137//51 212//51 220//51
f 212//51 137//51 138//51
f 220//51 212//51 221//51
f 222//51 221//51 212//51
f 221//51 222//51 223//51
f 212//55 208//55 221//55
f 221//55 208//55 206//55
f 221//55 206//55 204//55
f 221//55 204//55 224//55
f 224//55 204//55 202//55
f 224//55 202//55 200//55
f 224//55 200//55 225//55
f 225//55 200//55 198//55
f 225//55 198//55 196//55
f 225//55 196//55 226//55
f 194//55 226//55 196//55
f 192//55 226//55 194//55
f 192//55 227//55 226//55
f 190//55 227//55 192//55
f 188//55 227//55 190//55
f 188//55 183//55 227//55
f 186//55 183//55 188//55
f 182//55 183//55 186//55
f 184//108 227//108 183//108
f 227//108 184//108 228//108
f 184//53 189//53 228//53
f 184//53 187//53 189//53
f 184//53 185//53 187//53
f 228//53 189//53 191//53
f 228//53 191//53 193//53
f 228//53 193//53 229//53
f 229//53 193//53 195//53
f 229//53 195//53 197//53
f 229//53 197//53 230//53
f 199//53 230//53 197//53
f 201//53 230//53 199//53
f 201//53 231//53 230//53
f 203//53 231//53 201//53
f 205//53 231//53 203//53
f 205//53 220//53 231//53
f 207//53 220//53 205//53
f 209//53 220//53 207//53
f 210//53 220//53 209//53
f 220//109 224//109 231//109
f 224//109 220//109 221//109
f 225//110 231//110 224//110
f 231//110 225//110 230//110
f 232//111 230//111 225//111
f 230//111 232//111 233//111
f 234//112 233//112 232//112
f 233//112 234//112 235//112
f 236//113 235//113 234//113
f 235//113 236//113 237//113
f 238//114 237//114 236//114
f 237//114 238//114 239//114
f 240//115 239//115 238//115
f 239//115 240//115 241//115
f 242//116 241//116 240//116
f 241//116 242//116 243//116
f 244//117 243//117 242//117
f 243//117 244//117 245//117
f 226//118 245//118 244//118
f 245//118 226//118 229//118
f 227//119 229//119 226//119
f 229//119 227//119 228//119
f 229//53 233//53 245//53
f 229//53 230//53 233//53
f 245//53 233//53 235//53
f 245//53 235//53 243//53
f 243//53 235//53 237//53
f 243//53 237//53 241//53
f 241//53 237//53 239//53
f 225//55 226//55 244//55
f 225//55 244//55 232//55
f 232//55 244//55 242//55
f 232//55 242//55 234//55
f 234//55 242//55 240//55
f 234//55 240//55 236//55
f 236//55 240//55 238//55
f 210//120 213//120 219//120
f 213//120 210//120 211//120
f 214//121 219//121 213//121
f 219//121 214//121 218//121
f 215//122 218//122 214//122
f 218//122 215//122 216//122
